<?xml version="1.0" encoding="iso-8859-1"?>
<!-- Generator: Adobe Illustrator 19.0.0, SVG Export Plug-In . SVG Version: 6.00 Build 0)  -->
<svg version="1.1" id="Layer_1" xmlns="http://www.w3.org/2000/svg" xmlns:xlink="http://www.w3.org/1999/xlink" x="0px" y="0px"
	 viewBox="0 0 473.931 473.931" style="enable-background:new 0 0 473.931 473.931;" xml:space="preserve">
<circle style="fill:#65A844;" cx="236.966" cy="236.966" r="236.966"/>
<g>
	<path style="fill:#3D3123;" d="M201.542,162.98c0-20.898,17.092-31.214,38.177-31.214c21.085,0,38.173,10.316,38.173,31.214
		c0,0.442-0.008,23.495-0.026,23.936l-76.306-0.187C201.55,186.351,201.542,163.358,201.542,162.98z"/>
	<path style="fill:#3D3123;" d="M329.185,200.678h-19.738c-2.904,0-5.261-2.357-5.261-5.261c0-2.907,2.357-5.261,5.261-5.261h14.473
		V161.21c0-1.399,0.554-2.731,1.542-3.723c0,0,31.696-28.366,33.754-26.312c2.054,2.054-24.77,32.213-24.77,32.213v32.029
		C334.45,198.321,332.089,200.678,329.185,200.678z"/>
	<path style="fill:#3D3123;" d="M372.604,273.04c-1.56,0-3.106-0.696-4.138-2.013l-27.363-34.828h-29.025
		c-2.904,0-5.261-2.354-5.261-5.261s2.357-5.265,5.261-5.265h31.577c1.613,0,3.143,0.745,4.138,2.013l25.788,32.823
		c0,0,26.525-16.617,28.25-14.275c1.721,2.339-26.114,25.777-26.114,25.777C374.782,272.703,373.69,273.04,372.604,273.04z"/>
	<path style="fill:#3D3123;" d="M341.611,336.291c-1.126-0.935-1.811-2.297-1.893-3.76l-2.481-44.534l-29.122-16.991
		c-2.511-1.463-3.356-4.685-1.893-7.199c1.467-2.511,4.677-3.356,7.195-1.89l31.573,18.417c1.53,0.891,2.503,2.492,2.604,4.254
		l2.503,45.069c0,0,46.828,41.859,44.976,44.097C394.03,375.01,341.611,336.291,341.611,336.291z"/>
	<path style="fill:#3D3123;" d="M171.305,200.678h-19.734c-2.9,0-5.261-2.357-5.261-5.261v-32.029c0,0-26.825-30.159-24.77-32.213
		c2.062-2.054,33.754,26.312,33.754,26.312c0.992,0.988,1.542,2.324,1.542,3.723v28.946h14.473c2.907,0,5.265,2.354,5.265,5.261
		C176.57,198.321,174.213,200.678,171.305,200.678z"/>
	<path style="fill:#3D3123;" d="M108.156,273.04c-1.089,0-2.181-0.333-3.124-1.029c0,0-27.831-23.438-26.11-25.777
		c1.717-2.335,28.25,14.275,28.25,14.275l25.788-32.823c0.999-1.268,2.529-2.013,4.138-2.013h31.573
		c2.907,0,5.265,2.357,5.265,5.265s-2.357,5.261-5.265,5.261h-29.017l-27.363,34.828C111.258,272.344,109.712,273.04,108.156,273.04
		z"/>
	<path style="fill:#3D3123;" d="M85.679,373.753c-1.845-2.241,44.98-44.097,44.98-44.097l2.499-45.069
		c0.101-1.762,1.078-3.364,2.604-4.254l31.573-18.417c2.522-1.467,5.732-0.621,7.199,1.89c1.471,2.514,0.621,5.736-1.89,7.199
		l-29.126,16.991l-2.481,44.534c-0.079,1.463-0.767,2.825-1.893,3.76C139.145,336.291,86.727,375.01,85.679,373.753z"/>
	<path style="fill:#3D3123;" d="M312.65,292.68c0,47.277-32.658,85.608-72.931,85.608s-72.927-38.334-72.927-85.608
		c0-1.007,0.011-110.532,0.041-111.531l145.79,0.43C312.643,182.433,312.65,291.82,312.65,292.68z"/>
</g>
<path style="fill:#564635;" d="M314.267,181.707c-0.015-0.7-0.475-1.313-1.141-1.527c-0.427-0.135-42.637-13.665-75.512-13.665
	c-32.886,0-70.948,13.164-71.329,13.291c-0.64,0.228-1.078,0.831-1.104,1.512c-0.03,0.928-0.045,99.299-0.045,100.287
	c0,43.341,33.459,78.599,74.585,78.599s74.585-35.259,74.585-78.599C314.304,280.621,314.289,182.504,314.267,181.707z"/>
<path style="fill:#4F412F;" d="M237.617,166.516c-32.886,0-70.948,13.164-71.329,13.291c-0.64,0.228-1.078,0.831-1.104,1.512
	c-0.03,0.928-0.045,99.299-0.045,100.287c0,43.341,33.459,78.599,74.585,78.599L237.617,166.516z"/>
<path style="fill:#3D3123;" d="M243.667,370.509c0,2.178-1.766,3.948-3.948,3.948l0,0c-2.181,0-3.948-1.77-3.948-3.948
	c0,0,1.766-97.911,3.948-97.911l0,0C241.901,272.598,243.667,370.509,243.667,370.509z"/>
<g>
	<path style="fill:#30251A;" d="M264.273,155.508c-0.898,0-1.818-0.236-2.657-0.73c-2.503-1.471-3.349-4.688-1.871-7.195
		c1.508-2.574,37.53-62.993,88.01-65.743c2.836-0.165,5.384,2.065,5.542,4.973c0.165,2.9-2.069,5.381-4.962,5.538
		c-44.823,2.447-79.172,59.98-79.512,60.56C267.835,154.58,266.077,155.508,264.273,155.508z"/>
	<circle style="fill:#30251A;" cx="348.059" cy="87.089" r="7.891"/>
	<path style="fill:#30251A;" d="M217.363,155.508c-1.804,0-3.562-0.928-4.546-2.597c-0.34-0.58-34.69-58.113-79.516-60.56
		c-2.892-0.157-5.119-2.642-4.965-5.538c0.161-2.907,2.634-5.137,5.549-4.973c50.476,2.75,86.498,63.168,88.01,65.743
		c1.474,2.503,0.632,5.725-1.875,7.195C219.185,155.272,218.264,155.508,217.363,155.508z"/>
	<circle style="fill:#30251A;" cx="130.524" cy="87.089" r="7.891"/>
</g>
<g>
</g>
<g>
</g>
<g>
</g>
<g>
</g>
<g>
</g>
<g>
</g>
<g>
</g>
<g>
</g>
<g>
</g>
<g>
</g>
<g>
</g>
<g>
</g>
<g>
</g>
<g>
</g>
<g>
</g>
</svg>
