<?xml version="1.0" encoding="iso-8859-1"?>
<!-- Generator: Adobe Illustrator 19.0.0, SVG Export Plug-In . SVG Version: 6.00 Build 0)  -->
<svg version="1.1" id="Layer_1" xmlns="http://www.w3.org/2000/svg" xmlns:xlink="http://www.w3.org/1999/xlink" x="0px" y="0px"
	 viewBox="0 0 473.957 473.957" style="enable-background:new 0 0 473.957 473.957;" xml:space="preserve">
<path style="fill:#F4DF81;" d="M0.002,236.982C0.002,106.095,106.104,0,236.973,0c130.884,0,236.982,106.095,236.982,236.982
	c0,130.877-106.098,236.975-236.982,236.975C106.104,473.961,0.002,367.859,0.002,236.982z"/>
<path style="fill:#AC7753;" d="M450.33,340.226c-75.749-11.349-121.739-81.208-121.739-81.208l-106.884,46.466
	c18.593,83.648,74.361,116.171,74.361,116.171c12.636,11.955,25.343,22.365,38.054,31.468
	C384.848,430.287,426.117,390.171,450.33,340.226z"/>
<path style="fill:#AA7853;" d="M333.968,162.139c-0.269-0.722-0.569-1.429-0.906-2.107l-65.234-57.799
	c-9.762-4.569-22.559,2.331-35.341,2.331c-12.804,0-25.594-6.9-35.356-2.331l-65.227,57.796c-0.393,0.849-0.767,1.751-1.096,2.702
	c4.662,3.768,7.775,10.253,7.775,17.684c0,6.036-2.107,11.499-5.384,15.315l3.895,67.494l36.396,52.224
	c32.64,9.179,85.507,9.179,118.121,0l33.807-46.544l5.987-72.46c-3.656-3.824-5.987-9.583-5.987-16.026
	C325.418,172.582,328.845,165.757,333.968,162.139z"/>
<g>
	<path style="fill:#896852;" d="M130.807,162.73c-3.297,9.167-2.945,22.17,1.096,30.507l1.295,2.488
		c3.282-3.817,13.358-9.276,13.358-15.315C146.556,172.983,135.47,166.498,130.807,162.73z"/>
	<path style="fill:#896852;" d="M333.968,162.139c-5.123,3.622-17.553,10.443-17.553,18.275c0,6.447,11.334,12.202,14.99,16.026
		l1.658-3.199C337.182,184.736,337.481,171.348,333.968,162.139z"/>
</g>
<g>
	<path style="fill:#AA7853;" d="M149.135,149.877c0,0-34.656-99.928,52.86-32.666L149.135,149.877z"/>
	<path style="fill:#AA7853;" d="M315.311,148.818c0,0,34.619-99.932-52.868-32.688L315.311,148.818z"/>
</g>
<path style="fill:#B38669;" d="M176.569,303.635c0,0,9.5,29.122,20.396,37.938c10.911,8.812,23.132,10.26,34.211,10.35
	c11.921,0.146,25.044-1.792,37.074-10.35c12.03-8.55,20.15-37.938,20.15-37.938c0.561-1.482,2.967-26.024-9.253-45.669
	c-14.653-23.577-33.661-42.507-49.257-42.507c-16.239,0-40.722,21.126-51.524,45.511
	C170.182,279.429,176.046,302.239,176.569,303.635z"/>
<path style="fill:#9F7150;" d="M188.075,289.457l15.521,32.494c7.659,3.143,17.65,10.26,27.704,10.383
	c10.844,0.123,21.785-7.008,30.095-10.383l15.521-32.494c0.98-3.267-23.861-93.919-49.841-93.919
	C201.097,195.516,187.08,286.191,188.075,289.457z"/>
<path style="fill:#B38669;" d="M186.552,268.028c0,0,3.888,28.86,15.207,37.953c11.319,9.1,30.462-5.665,30.462-5.665
	s19.82,12.789,30.469,5.665c10.642-7.124,15.727-37.953,15.727-37.953c0.812-2.578-16.939-47.495-36.052-69.691
	c-4.913-5.725-25.036-5.051-29.635,1.605C196.779,223.052,185.77,265.502,186.552,268.028z"/>
<g>
	<path style="fill:#9F7150;" d="M232.225,307.53c-1.242,0-2.279-1.003-2.301-2.253l-1.579-50.222c-0.03-1.272,0.98-2.339,2.26-2.398
		c1.325,0.079,2.339,0.98,2.369,2.253l1.587,50.237c0.037,1.265-0.958,2.324-2.238,2.384
		C232.266,307.53,232.243,307.53,232.225,307.53z"/>
	<path style="fill:#9F7150;" d="M196.536,221.417l15.513,29.044c5.175,2.309,11.839,7.031,18.615,7.255
		c7.981,0.213,16.157-4.539,22.26-7.255l15.502-29.044c0.393-1.212-4.625-9.463-11.992-25.579l-51.88,0.95
		C199.241,212.582,196.158,220.253,196.536,221.417z"/>
</g>
<path style="fill:#AA7853;" d="M196.536,208.762l15.513,29.066c5.175,2.294,11.839,7.046,18.634,7.237
	c7.989,0.221,16.138-4.531,22.237-7.237l15.502-29.066c0.277-0.838-2.163-3.798-6.249-14.316l-32.258-7.046l-29.553,8.296
	C197.677,205.619,196.296,207.957,196.536,208.762z"/>
<g>
</g>
<g>
</g>
<g>
</g>
<g>
</g>
<g>
</g>
<g>
</g>
<g>
</g>
<g>
</g>
<g>
</g>
<g>
</g>
<g>
</g>
<g>
</g>
<g>
</g>
<g>
</g>
<g>
</g>
</svg>
