<?xml version="1.0" encoding="iso-8859-1"?>
<!-- Generator: Adobe Illustrator 19.0.0, SVG Export Plug-In . SVG Version: 6.00 Build 0)  -->
<svg version="1.1" id="Layer_1" xmlns="http://www.w3.org/2000/svg" xmlns:xlink="http://www.w3.org/1999/xlink" x="0px" y="0px"
	 viewBox="0 0 473.935 473.935" style="enable-background:new 0 0 473.935 473.935;" xml:space="preserve">
<circle style="fill:#357180;" cx="236.967" cy="236.967" r="236.967"/>
<g>
	<path style="fill:#C04727;" d="M145.698,198.655c22.945-22.948,65.945-40.673,81.534-25.085
		c15.588,15.585-2.14,58.585-25.085,81.53c-22.948,22.948-42.428,17.156-58.016,1.572
		C128.542,241.083,122.753,221.604,145.698,198.655z"/>
	<path style="fill:#C04727;" d="M327.53,129.717c-22.948,22.948-65.949,40.673-81.534,25.089
		c-15.588-15.588,2.14-58.585,25.089-81.534c22.945-22.948,42.428-17.156,58.013-1.568
		C344.682,87.288,350.475,106.768,327.53,129.717z"/>
	<path style="fill:#C04727;" d="M272.847,255.542c-22.948-22.948-40.677-65.942-25.089-81.53s58.585,2.137,81.534,25.085
		c22.945,22.948,17.156,42.428,1.568,58.016C315.272,272.698,295.792,278.49,272.847,255.542z"/>
	<path style="fill:#C04727;" d="M203.909,73.713c22.948,22.948,40.677,65.942,25.089,81.53s-58.585-2.137-81.534-25.085
		s-17.156-42.428-1.568-58.016C161.484,56.557,180.964,50.765,203.909,73.713z"/>
</g>
<g>
	<path style="fill:#C15832;" d="M314.067,129.78c-17.616,17.616-50.623,31.225-62.593,19.255
		c-11.966-11.966,1.639-44.973,19.255-62.589s32.572-13.175,44.535-1.205C327.238,97.204,331.683,112.164,314.067,129.78z"/>
	<path style="fill:#C15832;" d="M158.244,198.928c17.616-17.616,50.623-31.225,62.593-19.255
		c11.966,11.97-1.643,44.976-19.259,62.593c-17.616,17.616-32.569,13.175-44.535,1.205
		C145.073,231.501,140.628,216.545,158.244,198.928z"/>
	<path style="fill:#C15832;" d="M270.733,242.262c-17.616-17.616-31.225-50.619-19.255-62.593
		c11.966-11.966,44.973,1.639,62.589,19.255c17.616,17.616,13.175,32.572,1.201,44.538
		C303.302,255.437,288.35,259.878,270.733,242.262z"/>
	<path style="fill:#C15832;" d="M201.578,86.447c17.616,17.616,31.225,50.619,19.259,62.593
		c-11.97,11.966-44.976-1.639-62.593-19.263c-17.616-17.609-13.175-32.565-1.201-44.531
		C169.009,73.272,183.961,68.83,201.578,86.447z"/>
</g>
<g>
	<path style="fill:#4CB648;" d="M245.51,422.238c0,9.815-5.444,17.773-12.161,17.773l0,0c-6.717,0-12.161-7.959-12.161-17.773
		V299.369c0-9.815,5.444-17.773,12.161-17.773l0,0c6.716,0,12.161,7.959,12.161,17.773V422.238z"/>
	<path style="fill:#4CB648;" d="M145.75,330.097c31.7,14.889,50.331,7.424,69.302,25.77c14.196,13.717,16.483,34.391,5.108,46.159
		c-11.383,11.772-32.116,10.189-46.308-3.532C147.67,373.18,145.75,330.097,145.75,330.097z"/>
	<path style="fill:#4CB648;" d="M320.884,330.097c-31.7,14.889-50.331,7.424-69.302,25.77
		c-14.196,13.717-16.483,34.391-5.108,46.159c11.383,11.772,32.116,10.189,46.308-3.532
		C318.965,373.18,320.884,330.097,320.884,330.097z"/>
</g>
<g>
	<path style="fill:#C04727;" d="M196.242,253.948c0-32.453,17.871-75.39,39.914-75.39s39.914,42.937,39.914,75.39
		s-17.871,42.133-39.914,42.133S196.242,286.4,196.242,253.948z"/>
	<path style="fill:#C04727;" d="M276.069,76.628c0,32.453-17.871,75.39-39.914,75.39s-39.914-42.937-39.914-75.39
		s17.871-42.133,39.914-42.133S276.069,44.179,276.069,76.628z"/>
	<path style="fill:#C04727;" d="M326.374,204.268c-32.453,0-75.39-17.867-75.39-39.914s42.941-39.914,75.39-39.914
		s42.133,17.867,42.133,39.914S358.826,204.268,326.374,204.268z"/>
	<path style="fill:#C04727;" d="M149.058,124.441c32.453,0,75.39,17.867,75.39,39.914s-42.937,39.914-75.39,39.914
		s-42.133-17.867-42.133-39.914S116.605,124.441,149.058,124.441z"/>
</g>
<g>
	<path style="fill:#C15832;" d="M315.695,194.996c-24.913,0-57.874-13.717-57.87-30.641c0-16.924,32.961-30.638,57.871-30.638
		c24.913,0,32.348,13.714,32.348,30.638C348.042,181.278,340.607,194.996,315.695,194.996z"/>
	<path style="fill:#C15832;" d="M156.616,133.709c24.913,0,57.874,13.717,57.874,30.641c-0.004,16.924-32.965,30.638-57.878,30.638
		s-32.344-13.714-32.344-30.638S131.703,133.709,156.616,133.709z"/>
	<path style="fill:#C15832;" d="M205.518,243.893c0-24.913,13.714-57.874,30.642-57.874c16.924,0,30.642,32.961,30.642,57.874
		s-13.717,32.348-30.645,32.348C219.231,276.237,205.518,268.806,205.518,243.893z"/>
	<path style="fill:#C15832;" d="M266.797,84.815c0,24.913-13.714,57.874-30.638,57.878c-16.924-0.004-30.641-32.965-30.638-57.885
		c-0.004-24.905,13.714-32.34,30.638-32.34C253.08,52.467,266.797,59.902,266.797,84.815z"/>
</g>
<circle style="fill:#EDC92C;" cx="238.015" cy="165.612" r="53.631"/>
<circle style="fill:#E79E2D;" cx="238.015" cy="165.612" r="20.58"/>
<g>
</g>
<g>
</g>
<g>
</g>
<g>
</g>
<g>
</g>
<g>
</g>
<g>
</g>
<g>
</g>
<g>
</g>
<g>
</g>
<g>
</g>
<g>
</g>
<g>
</g>
<g>
</g>
<g>
</g>
</svg>
