<?xml version="1.0" encoding="iso-8859-1"?>
<!-- Generator: Adobe Illustrator 19.0.0, SVG Export Plug-In . SVG Version: 6.00 Build 0)  -->
<svg version="1.1" id="Layer_1" xmlns="http://www.w3.org/2000/svg" xmlns:xlink="http://www.w3.org/1999/xlink" x="0px" y="0px"
	 viewBox="0 0 474.081 474.081" style="enable-background:new 0 0 474.081 474.081;" xml:space="preserve">
<circle style="fill:#A0D2DC;" cx="237.04" cy="236.967" r="236.967"/>
<path style="fill:#F5F3E2;" d="M236.868,474.081c100.781,0,186.813-62.944,221.076-151.636
	c-61.87-37.294-142.323-54.993-230.285-54.993c-80.886,0-155.415,14.975-214.996,46.383
	C44.563,407.043,132.862,474.081,236.868,474.081z"/>
<path style="fill:#C0BDBB;" d="M80.757,316.619c0.887-10.413,3.334-20.52,7.001-30.058c7.674-26.567,24.681-49.74,45.257-63.805
	c20.673-58.398,67.674-99.187,122.356-99.187c73.784,0,133.597,74.252,133.597,165.844c0,46.525-68.924,69.414-136.759,68.68
	C227.286,369.502,76.293,368.791,80.757,316.619z"/>
<path style="fill:#F8F1E4;" d="M121.775,277.233c0,91.595,267.194,91.595,267.194,0c0-91.599-59.812-165.847-133.597-165.847
	S121.775,185.634,121.775,277.233z"/>
<path style="fill:#DFDEDD;" d="M83.361,304.858c0,56.842,169.234,33.777,169.234,33.777
	c15.046-71.663-31.293-142.371-77.088-142.371S83.361,248.009,83.361,304.858z"/>
<path style="fill:#F8F1E4;" d="M80.757,304.436c-4.846,56.647,173.574,52.625,174.906,38.293
	c5.268-56.602-28.217-134.731-73.84-138.637C136.192,200.193,85.599,247.804,80.757,304.436z"/>
<path style="fill:#DFDEDD;" d="M89.584,314.31c15.817,19.966,60.363,33.13,68.366,20.082c18.78-30.6,2.002-73.088-19.3-81.59
	C103.706,238.864,75.216,296.163,89.584,314.31z"/>
<path style="fill:#C0BDBB;" d="M91.103,315.594c14.836,18.746,56.639,31.083,64.149,18.847
	c17.616-28.714,1.878-68.587-18.114-76.561C104.349,244.806,77.622,298.572,91.103,315.594z"/>
<g>
</g>
<g>
</g>
<g>
</g>
<g>
</g>
<g>
</g>
<g>
</g>
<g>
</g>
<g>
</g>
<g>
</g>
<g>
</g>
<g>
</g>
<g>
</g>
<g>
</g>
<g>
</g>
<g>
</g>
</svg>
