<?xml version="1.0" encoding="iso-8859-1"?>
<!-- Generator: Adobe Illustrator 19.0.0, SVG Export Plug-In . SVG Version: 6.00 Build 0)  -->
<svg version="1.1" id="Layer_1" xmlns="http://www.w3.org/2000/svg" xmlns:xlink="http://www.w3.org/1999/xlink" x="0px" y="0px"
	 viewBox="0 0 473.935 473.935" style="enable-background:new 0 0 473.935 473.935;" xml:space="preserve">
<circle style="fill:#A2D4DE;" cx="236.967" cy="236.967" r="236.967"/>
<polygon style="fill:#A48131;" points="433.613,316.275 362.905,218.966 335.777,175.415 318.823,170.543 256.417,87.906 
	237.922,74.304 216.829,82.862 180.44,131.064 163.194,137.492 40.598,316.275 "/>
<polygon style="fill:#9C7B2F;" points="433.613,316.275 376.6,218.966 332.686,199.718 220.204,230.827 121.582,209.435 
	103.868,215.269 40.598,316.275 "/>
<polygon style="fill:#A47E2D;" points="335.777,175.415 318.823,170.543 256.417,87.906 237.922,72.841 216.829,82.862 
	180.44,131.064 163.194,137.492 172.44,179.295 233.308,193.884 "/>
<polygon style="fill:#98732B;" points="335.777,175.415 318.823,170.543 283.377,175.415 234.075,183.183 190.921,173.466 
	180.44,131.064 163.194,137.492 172.44,179.295 233.308,193.884 "/>
<polygon style="fill:#9F772B;" points="256.417,87.906 237.922,72.841 215.969,82.323 207.879,94.959 224.833,90.181 
	235.684,97.257 247.422,93.425 "/>
<path style="fill:#F4DF81;" d="M236.949,473.935c103.573,0,191.568-66.469,223.808-159.056H13.149
	C45.388,407.466,133.376,473.935,236.949,473.935z"/>
<g>
</g>
<g>
</g>
<g>
</g>
<g>
</g>
<g>
</g>
<g>
</g>
<g>
</g>
<g>
</g>
<g>
</g>
<g>
</g>
<g>
</g>
<g>
</g>
<g>
</g>
<g>
</g>
<g>
</g>
</svg>
