<?xml version="1.0" encoding="iso-8859-1"?>
<!-- Generator: Adobe Illustrator 19.0.0, SVG Export Plug-In . SVG Version: 6.00 Build 0)  -->
<svg version="1.1" id="Layer_1" xmlns="http://www.w3.org/2000/svg" xmlns:xlink="http://www.w3.org/1999/xlink" x="0px" y="0px"
	 viewBox="0 0 473.961 473.961" style="enable-background:new 0 0 473.961 473.961;" xml:space="preserve">
<circle style="fill:#A2D4DE;" cx="236.994" cy="236.981" r="236.967"/>
<path style="fill:#F4DF81;" d="M0,236.973h473.957c0,130.873-106.098,236.975-236.982,236.975C106.098,473.948,0,367.846,0,236.973z
	"/>
<g>
	<path style="fill:#73903C;" d="M263.403,374.517c0,6.608-5.358,11.948-11.948,11.948h-20.924c-6.601,0-11.948-5.343-11.948-11.948
		V96.866c0-6.612,5.351-11.951,11.948-11.951h20.924c6.593,0,11.948,5.343,11.948,11.951V374.517z"/>
	<path style="fill:#73903C;" d="M313.206,293.661c0,4.838-3.925,8.763-8.763,8.763h-15.341c-4.838,0-8.763-3.925-8.763-8.763
		v-84.362c0-4.838,3.925-8.763,8.763-8.763h15.341c4.838,0,8.763,3.925,8.763,8.763V293.661z"/>
	<path style="fill:#73903C;" d="M206.206,338.473c0,4.838-3.918,8.763-8.756,8.763h-15.349c-4.831,0-8.763-3.925-8.763-8.763V254.11
		c0-4.838,3.933-8.756,8.763-8.756h15.349c4.838,0,8.756,3.918,8.756,8.756V338.473z"/>
	<path style="fill:#73903C;" d="M181.162,346.989c-3.981,0-7.207-3.918-7.207-8.763v-15.341c0-4.838,3.222-8.763,7.207-8.763h69.29
		c3.97,0,7.192,3.925,7.192,8.763v15.341c0,4.846-3.222,8.763-7.192,8.763H181.162z"/>
	<path style="fill:#73903C;" d="M233.315,302.271c-4.071,0-7.375-3.925-7.375-8.763v-15.341c0-4.846,3.304-8.771,7.375-8.771h70.963
		c4.071,0,7.375,3.925,7.375,8.771v15.341c0,4.838-3.304,8.763-7.375,8.763H233.315z"/>
</g>
<g>
</g>
<g>
</g>
<g>
</g>
<g>
</g>
<g>
</g>
<g>
</g>
<g>
</g>
<g>
</g>
<g>
</g>
<g>
</g>
<g>
</g>
<g>
</g>
<g>
</g>
<g>
</g>
<g>
</g>
</svg>
